<?xml version="1.0" encoding="UTF-8"?>
<svg id="Layer_2" data-name="Layer 2" xmlns="http://www.w3.org/2000/svg" viewBox="0 0 1363.08 118.21">
  <defs>
    <style>
      .cls-1 {
        fill: #fff;
      }
    </style>
  </defs>
  <g id="Layer_1-2" data-name="Layer 1">
    <g>
      <polygon class="cls-1" points="604.05 73.86 604.52 73.7 604.52 63.43 597.98 63.43 604.05 73.86"/>
      <polygon class="cls-1" points="561.99 44.43 561.99 51.43 566.63 51.43 562.47 44.27 561.99 44.43"/>
      <path class="cls-1" d="M79.15,47.78c2.52-4.23,3.79-9.09,3.79-14.56,0-10.47-3.98-18.35-11.96-23.63C63.01,4.3,51.9,1.66,37.64,1.66H0V51.43H76.35c1.07-1.12,2.01-2.33,2.8-3.65Zm-27.62-1.58c-3.16,2.24-7.94,3.35-14.36,3.35h-10.5V22.17h10.97c6.31,0,10.99,1.12,14.05,3.35,3.05,2.24,4.58,5.8,4.58,10.69,0,4.42-1.58,7.75-4.73,9.98Z"/>
      <path class="cls-1" d="M0,116.55H43.79c14.05,0,24.83-2.87,32.35-8.6,7.52-5.73,11.28-14.2,11.28-25.41,0-6.05-1.64-11.39-4.93-16.02-.8-1.12-1.71-2.15-2.71-3.09H0v53.12Zm43.87-49.32h.87c5.73,.16,9.85,1.5,12.35,4.02,2.5,2.53,3.75,6.23,3.75,11.13,0,4.63-1.42,8.06-4.26,10.3-2.84,2.24-7.1,3.35-12.78,3.35H26.67v-28.8h17.2Z"/>
      <path class="cls-1" d="M251.64,48.13c-7.84-3.05-13.19-5.59-16.06-7.61-2.87-2.02-4.3-4.72-4.3-8.09s1.39-6.39,4.18-8.76c2.79-2.37,6.6-3.55,11.44-3.55,5.94,0,10.39,1.22,13.34,3.67,2.95,2.45,4.42,6.38,4.42,11.8h25.88l.16-.47c.26-11.15-3.6-19.79-11.6-25.92-8-6.13-18.54-9.19-31.64-9.19-12.42,0-22.65,2.97-30.7,8.92-8.05,5.95-12.07,13.73-12.07,23.36,0,7.85,2.21,14.24,6.62,19.16h50.16c-3.05-1.16-6.33-2.26-9.83-3.3Z"/>
      <path class="cls-1" d="M246.83,69.68c7.05,2.47,11.92,4.8,14.6,6.98,2.68,2.18,4.02,5.33,4.02,9.43,0,3.58-1.37,6.47-4.1,8.68-2.74,2.21-6.89,3.31-12.47,3.31-6.79,0-11.82-1.41-15.11-4.22-3.29-2.81-4.93-7.56-4.93-14.24h-25.96l-.16,.47c-.26,13.15,4.12,22.79,13.14,28.92,9.02,6.13,20.03,9.19,33.02,9.19s23.52-2.85,31.41-8.56c7.89-5.71,11.84-13.61,11.84-23.71,0-9.4-3.1-16.9-9.28-22.5h-52.61c4.83,2.14,10.36,4.22,16.6,6.25Z"/>
      <polygon class="cls-1" points="373.79 46.87 333.31 46.87 333.31 22.17 381.92 22.17 381.92 1.66 306.64 1.66 306.64 51.43 373.79 51.43 373.79 46.87"/>
      <polygon class="cls-1" points="306.64 116.55 381.84 116.55 381.84 96.03 333.31 96.03 333.31 67.39 373.79 67.39 373.79 63.43 306.64 63.43 306.64 116.55"/>
      <polygon class="cls-1" points="396.84 116.55 472.83 116.55 472.83 96.03 423.51 96.03 423.51 63.43 396.84 63.43 396.84 116.55"/>
      <rect class="cls-1" x="396.84" y="1.66" width="26.67" height="49.77"/>
      <rect class="cls-1" x="488.77" y="63.43" width="26.59" height="53.12"/>
      <rect class="cls-1" x="488.77" y="1.66" width="26.59" height="49.77"/>
      <polygon class="cls-1" points="604.52 73.7 604.05 73.86 597.98 63.43 573.62 63.43 604.52 116.55 631.12 116.55 631.12 63.43 604.52 63.43 604.52 73.7"/>
      <polygon class="cls-1" points="561.99 44.43 562.47 44.27 566.63 51.43 590.99 51.43 561.99 1.66 535.32 1.66 535.32 51.43 561.99 51.43 561.99 44.43"/>
      <rect class="cls-1" x="604.52" y="1.66" width="26.59" height="49.77"/>
      <rect class="cls-1" x="535.32" y="63.43" width="26.67" height="53.12"/>
      <polygon class="cls-1" points="716.58 46.87 676.1 46.87 676.1 22.17 724.7 22.17 724.7 1.66 649.42 1.66 649.42 51.43 716.58 51.43 716.58 46.87"/>
      <polygon class="cls-1" points="649.42 116.55 724.63 116.55 724.63 96.03 676.1 96.03 676.1 67.39 716.58 67.39 716.58 63.43 649.42 63.43 649.42 116.55"/>
      <polygon class="cls-1" points="779.86 116.55 806.53 116.55 806.53 70.31 849.06 70.31 849.06 116.55 875.66 116.55 875.66 63.43 779.86 63.43 779.86 116.55"/>
      <polygon class="cls-1" points="875.66 1.66 849.06 1.66 849.06 49.79 806.53 49.79 806.53 1.66 779.86 1.66 779.86 51.43 875.66 51.43 875.66 1.66"/>
      <path class="cls-1" d="M918.43,48.61c0-8.26,1.91-15.01,5.72-20.24,3.81-5.23,9.32-7.85,16.53-7.85s12.51,2.63,16.37,7.89c3.87,5.26,5.8,11.99,5.8,20.2v2.82h26.59v-2.67c0-14.1-4.53-25.75-13.57-34.96-9.05-9.21-20.78-13.81-35.19-13.81s-26.29,4.6-35.31,13.81c-9.02,9.21-13.53,20.86-13.53,34.96v2.67h26.59v-2.82Z"/>
      <path class="cls-1" d="M962.85,69.44c0,8.31-1.92,15.1-5.76,20.36-3.84,5.26-9.26,7.89-16.26,7.89s-12.74-2.63-16.61-7.89c-3.87-5.26-5.8-12.05-5.8-20.36v-6.01h-26.59v6.01c0,14.15,4.52,25.82,13.57,35,9.05,9.18,20.86,13.77,35.43,13.77s26.18-4.59,35.15-13.77c8.97-9.18,13.45-20.84,13.45-35v-6.01h-26.59v6.01Z"/>
      <path class="cls-1" d="M1051.15,48.13c-7.84-3.05-13.19-5.59-16.06-7.61-2.87-2.02-4.3-4.72-4.3-8.09s1.39-6.39,4.18-8.76c2.79-2.37,6.6-3.55,11.44-3.55,5.94,0,10.39,1.22,13.33,3.67,2.95,2.45,4.42,6.38,4.42,11.8h25.88l.16-.47c.26-11.15-3.6-19.79-11.6-25.92-8-6.13-18.54-9.19-31.64-9.19-12.42,0-22.65,2.97-30.7,8.92-8.05,5.95-12.07,13.73-12.07,23.36,0,7.85,2.21,14.24,6.62,19.16h50.16c-3.05-1.16-6.33-2.26-9.83-3.3Z"/>
      <path class="cls-1" d="M1046.34,69.68c7.05,2.47,11.92,4.8,14.6,6.98,2.68,2.18,4.02,5.33,4.02,9.43,0,3.58-1.37,6.47-4.1,8.68-2.74,2.21-6.89,3.31-12.47,3.31-6.79,0-11.82-1.41-15.11-4.22-3.29-2.81-4.93-7.56-4.93-14.24h-25.96l-.16,.47c-.26,13.15,4.12,22.79,13.14,28.92,9.02,6.13,20.03,9.19,33.02,9.19s23.51-2.85,31.41-8.56c7.89-5.71,11.84-13.61,11.84-23.71,0-9.4-3.1-16.9-9.28-22.5h-52.61c4.83,2.14,10.36,4.22,16.6,6.25Z"/>
      <polygon class="cls-1" points="1155.71 22.17 1186.09 22.17 1186.09 1.66 1099.21 1.66 1099.21 22.17 1129.04 22.17 1129.04 51.43 1155.71 51.43 1155.71 22.17"/>
      <rect class="cls-1" x="1129.04" y="63.43" width="26.67" height="53.12"/>
      <polygon class="cls-1" points="1196.9 116.55 1272.1 116.55 1272.1 96.03 1223.57 96.03 1223.57 67.39 1264.05 67.39 1264.05 63.43 1196.9 63.43 1196.9 116.55"/>
      <polygon class="cls-1" points="1264.05 46.87 1223.57 46.87 1223.57 22.17 1272.18 22.17 1272.18 1.66 1196.9 1.66 1196.9 51.43 1264.05 51.43 1264.05 46.87"/>
      <polygon class="cls-1" points="1313.76 96.03 1313.76 63.43 1287.09 63.43 1287.09 116.55 1363.08 116.55 1363.08 96.03 1313.76 96.03"/>
      <rect class="cls-1" x="1287.09" y="1.66" width="26.67" height="49.77"/>
      <polyline class="cls-1" points="145.82 38.03 149.93 51.43 176.7 51.43 160.42 1.66 131.78 1.66 115.54 51.43 141.83 51.43"/>
      <polygon class="cls-1" points="94.3 116.55 122.39 116.55 138.24 63.43 111.63 63.43 94.3 116.55"/>
      <polygon class="cls-1" points="169.89 116.55 197.98 116.55 180.62 63.43 153.61 63.43 169.89 116.55"/>
    </g>
  </g>
</svg>